<?xml version="1.0" standalone="no"?>
<!DOCTYPE svg PUBLIC "-//W3C//DTD SVG 20010904//EN"
 "http://www.w3.org/TR/2001/REC-SVG-20010904/DTD/svg10.dtd">
<svg version="1.0" xmlns="http://www.w3.org/2000/svg"
 width="225.000000pt" height="225.000000pt" viewBox="0 0 225.000000 225.000000"
 preserveAspectRatio="xMidYMid meet">
<metadata>
Created by potrace 1.11, written by Peter Selinger 2001-2013
</metadata>
<g transform="translate(0.000000,225.000000) scale(0.100000,-0.100000)"
fill="#000000" stroke="none">
<path d="M52 2238 c-15 -15 -17 -2124 -2 -2148 8 -13 110 -15 801 -18 864 -3
839 -4 839 53 0 33 -27 45 -104 45 l-66 0 0 300 0 300 73 0 c77 0 97 9 97 45
0 36 -20 45 -97 45 l-73 0 0 300 0 300 300 0 300 0 0 -68 c0 -40 5 -73 12 -80
15 -15 51 -15 66 0 17 17 17 909 0 926 -17 17 -2129 17 -2146 0z m678 -378 l0
-300 -300 0 -300 0 0 300 0 300 300 0 300 0 0 -300z m698 -2 l2 -298 -305 0
-305 0 0 293 c0 162 3 297 7 300 4 4 140 6 302 5 l296 -3 3 -297z m692 2 l0
-300 -300 0 -300 0 0 300 0 300 300 0 300 0 0 -300z m-1390 -700 l0 -300 -300
0 -300 0 0 300 0 300 300 0 300 0 0 -300z m698 3 l-3 -298 -300 0 -300 0 -3
298 -2 297 305 0 305 0 -2 -297z m-698 -693 l0 -300 -300 0 -300 0 0 300 0
300 300 0 300 0 0 -300z m700 0 l0 -300 -305 0 -305 0 0 300 0 300 305 0 305
0 0 -300z"/>
<path d="M352 2004 c-45 -42 -82 -84 -82 -93 0 -20 30 -51 48 -51 7 0 30 16
52 36 l40 36 0 -141 c0 -139 0 -142 24 -152 17 -8 29 -8 45 0 20 11 21 18 21
214 0 145 -3 206 -12 215 -25 25 -56 11 -136 -64z"/>
<path d="M930 1360 c-24 -24 -25 -32 -2 -59 16 -19 29 -21 162 -23 l145 -3 0
-30 0 -30 -99 -5 c-85 -4 -100 -8 -111 -25 -9 -13 -10 -28 -4 -42 8 -22 14
-23 102 -23 96 0 117 -8 117 -42 0 -30 -35 -38 -174 -38 -127 0 -136 -1 -146
-21 -9 -16 -8 -26 5 -45 15 -24 18 -24 164 -24 137 0 151 2 182 23 19 12 43
40 53 62 18 36 18 42 4 82 -14 38 -14 48 -2 84 26 74 -12 148 -87 169 -19 6
-91 10 -161 10 -115 0 -130 -2 -148 -20z"/>
<path d="M1938 1188 c-122 -138 -108 -56 -108 -644 0 -453 2 -514 16 -528 13
-13 44 -16 178 -16 113 0 166 4 174 12 9 9 12 142 12 535 l0 524 -81 94 c-59
68 -88 95 -105 95 -15 0 -42 -23 -86 -72z m136 -102 c25 -30 46 -57 46 -60 0
-3 -43 -6 -96 -6 -64 0 -94 4 -92 11 5 15 82 108 89 109 4 0 27 -24 53 -54z
m46 -481 l0 -325 -95 0 -95 0 0 325 0 325 95 0 95 0 0 -325z m0 -465 l0 -50
-95 0 -95 0 0 50 0 50 95 0 95 0 0 -50z"/>
</g>
</svg>
